# xmcd
#
# Track frame offsets: 
#        182
#        14132
#        31312
#        43735
#        59955
#        75345
#        90600
#        105685
#        117560
#        132460
#
# Disc length: 1979 seconds
#
# Revision: 8
# Processed by: cddbd v1.5.2PL0 Copyright (c) Steve Scherf et al.
# Submitted via: ExactAudioCopyFreeDBPlugin 1.0
#
DISCID=8d07b90a
DTITLE=Neal McCoy - GreatestHits
DYEAR=1997
DGENRE=Country
TTITLE0=Now I Pray For Rain
TTITLE1=No Doubt About It
TTITLE2=Wink
TTITLE3=The City Put The Country Back In Me
TTITLE4=For A Change
TTITLE5=They're Playin' Our Song
TTITLE6=If I Was A Drinkin' Man
TTITLE7=You Gotta Love That
TTITLE8=Then You Can Tell Me Goodbye
TTITLE9=The Shake
EXTD=more info\nMillenniumMusicProjectFormat, syntax as follows:\nTitl
EXTD=e{Subtitle}[info](Lyricist;Composer;Date,Artist,Location)[info]\n
EXTD=corrections to: windking3@yahoo.com
EXTT0=
EXTT1=
EXTT2=
EXTT3=
EXTT4=
EXTT5=
EXTT6=
EXTT7=
EXTT8=
EXTT9=
PLAYORDER=
